<mxfile host="app.diagrams.net" modified="2022-11-03T15:18:08.527Z" agent="5.0 (Windows NT 10.0; Win64; x64) AppleWebKit/537.36 (KHTML, like Gecko) Chrome/107.0.0.0 Safari/537.36" etag="A2rp4RG8vtR7SKNCGQ0g" version="20.5.1" type="github">
  <diagram id="kQBYqxxe0KvYkYEwbEqs" name="Page-1">
    <mxGraphModel dx="2062" dy="1154" grid="1" gridSize="10" guides="1" tooltips="1" connect="1" arrows="1" fold="1" page="1" pageScale="1" pageWidth="827" pageHeight="1169" math="0" shadow="0">
      <root>
        <mxCell id="0" />
        <mxCell id="1" parent="0" />
        <mxCell id="2HjbmUuSS6PdxE3HllNU-2" value="Customer" style="shape=umlActor;verticalLabelPosition=bottom;verticalAlign=top;html=1;" parent="1" vertex="1">
          <mxGeometry x="40" y="120" width="30" height="60" as="geometry" />
        </mxCell>
        <mxCell id="2HjbmUuSS6PdxE3HllNU-4" value="View menu" style="ellipse;whiteSpace=wrap;html=1;" parent="1" vertex="1">
          <mxGeometry x="150" y="10" width="110" height="50" as="geometry" />
        </mxCell>
        <mxCell id="2HjbmUuSS6PdxE3HllNU-5" value="View order tracking" style="ellipse;whiteSpace=wrap;html=1;" parent="1" vertex="1">
          <mxGeometry x="170" y="240" width="110" height="50" as="geometry" />
        </mxCell>
        <mxCell id="2HjbmUuSS6PdxE3HllNU-6" value="Log in" style="ellipse;whiteSpace=wrap;html=1;" parent="1" vertex="1">
          <mxGeometry x="400" y="280" width="110" height="50" as="geometry" />
        </mxCell>
        <mxCell id="2HjbmUuSS6PdxE3HllNU-7" value="View total bill" style="ellipse;whiteSpace=wrap;html=1;" parent="1" vertex="1">
          <mxGeometry x="160" y="80" width="110" height="50" as="geometry" />
        </mxCell>
        <mxCell id="2HjbmUuSS6PdxE3HllNU-8" value="Order pizza" style="ellipse;whiteSpace=wrap;html=1;" parent="1" vertex="1">
          <mxGeometry x="160" y="160" width="110" height="50" as="geometry" />
        </mxCell>
        <mxCell id="2HjbmUuSS6PdxE3HllNU-12" value="&amp;lt;&amp;lt;include&amp;gt;&amp;gt;" style="edgeStyle=none;html=1;endArrow=open;verticalAlign=bottom;dashed=1;labelBackgroundColor=none;rounded=0;exitX=0.936;exitY=0.8;exitDx=0;exitDy=0;exitPerimeter=0;entryX=0;entryY=0;entryDx=0;entryDy=0;" parent="1" source="2HjbmUuSS6PdxE3HllNU-4" target="2HjbmUuSS6PdxE3HllNU-6" edge="1">
          <mxGeometry width="160" relative="1" as="geometry">
            <mxPoint x="330" y="590" as="sourcePoint" />
            <mxPoint x="490" y="590" as="targetPoint" />
            <Array as="points" />
          </mxGeometry>
        </mxCell>
        <mxCell id="2HjbmUuSS6PdxE3HllNU-13" value="&amp;lt;&amp;lt;include&amp;gt;&amp;gt;" style="edgeStyle=none;html=1;endArrow=open;verticalAlign=bottom;dashed=1;labelBackgroundColor=none;rounded=0;entryX=0;entryY=0.5;entryDx=0;entryDy=0;exitX=1;exitY=1;exitDx=0;exitDy=0;" parent="1" source="2HjbmUuSS6PdxE3HllNU-7" target="2HjbmUuSS6PdxE3HllNU-6" edge="1">
          <mxGeometry width="160" relative="1" as="geometry">
            <mxPoint x="250" y="120" as="sourcePoint" />
            <mxPoint x="410" y="120" as="targetPoint" />
          </mxGeometry>
        </mxCell>
        <mxCell id="2HjbmUuSS6PdxE3HllNU-14" value="&amp;lt;&amp;lt;include&amp;gt;&amp;gt;" style="edgeStyle=none;html=1;endArrow=open;verticalAlign=bottom;dashed=1;labelBackgroundColor=none;rounded=0;entryX=0.073;entryY=0.74;entryDx=0;entryDy=0;entryPerimeter=0;exitX=1;exitY=1;exitDx=0;exitDy=0;" parent="1" source="2HjbmUuSS6PdxE3HllNU-8" target="2HjbmUuSS6PdxE3HllNU-6" edge="1">
          <mxGeometry width="160" relative="1" as="geometry">
            <mxPoint x="240" y="200" as="sourcePoint" />
            <mxPoint x="400" y="200" as="targetPoint" />
          </mxGeometry>
        </mxCell>
        <mxCell id="2HjbmUuSS6PdxE3HllNU-15" value="&amp;lt;&amp;lt;include&amp;gt;&amp;gt;" style="edgeStyle=none;html=1;endArrow=open;verticalAlign=bottom;dashed=1;labelBackgroundColor=none;rounded=0;entryX=0;entryY=1;entryDx=0;entryDy=0;exitX=1;exitY=1;exitDx=0;exitDy=0;" parent="1" source="2HjbmUuSS6PdxE3HllNU-5" target="2HjbmUuSS6PdxE3HllNU-6" edge="1">
          <mxGeometry width="160" relative="1" as="geometry">
            <mxPoint x="240" y="280" as="sourcePoint" />
            <mxPoint x="400" y="280" as="targetPoint" />
          </mxGeometry>
        </mxCell>
        <mxCell id="2HjbmUuSS6PdxE3HllNU-16" value="Admin" style="shape=umlActor;verticalLabelPosition=bottom;verticalAlign=top;html=1;" parent="1" vertex="1">
          <mxGeometry x="50" y="410" width="30" height="60" as="geometry" />
        </mxCell>
        <mxCell id="2HjbmUuSS6PdxE3HllNU-18" value="Add/delete position" style="ellipse;whiteSpace=wrap;html=1;" parent="1" vertex="1">
          <mxGeometry x="125" y="360" width="115" height="50" as="geometry" />
        </mxCell>
        <mxCell id="2HjbmUuSS6PdxE3HllNU-19" value="Manage order status" style="ellipse;whiteSpace=wrap;html=1;" parent="1" vertex="1">
          <mxGeometry x="125" y="440" width="110" height="50" as="geometry" />
        </mxCell>
        <mxCell id="2HjbmUuSS6PdxE3HllNU-20" value="Manage payment" style="ellipse;whiteSpace=wrap;html=1;" parent="1" vertex="1">
          <mxGeometry x="120" y="520" width="110" height="50" as="geometry" />
        </mxCell>
        <mxCell id="2HjbmUuSS6PdxE3HllNU-22" value="&amp;lt;&amp;lt;include&amp;gt;&amp;gt;" style="edgeStyle=none;html=1;endArrow=open;verticalAlign=bottom;dashed=1;labelBackgroundColor=none;rounded=0;entryX=0;entryY=1;entryDx=0;entryDy=0;exitX=1;exitY=0.2;exitDx=0;exitDy=0;exitPerimeter=0;" parent="1" source="2HjbmUuSS6PdxE3HllNU-18" target="2HjbmUuSS6PdxE3HllNU-6" edge="1">
          <mxGeometry width="160" relative="1" as="geometry">
            <mxPoint x="250" y="490" as="sourcePoint" />
            <mxPoint x="410" y="490" as="targetPoint" />
          </mxGeometry>
        </mxCell>
        <mxCell id="2HjbmUuSS6PdxE3HllNU-23" value="&amp;lt;&amp;lt;include&amp;gt;&amp;gt;" style="edgeStyle=none;html=1;endArrow=open;verticalAlign=bottom;dashed=1;labelBackgroundColor=none;rounded=0;entryX=0.364;entryY=1;entryDx=0;entryDy=0;entryPerimeter=0;exitX=0.973;exitY=0.26;exitDx=0;exitDy=0;exitPerimeter=0;" parent="1" source="2HjbmUuSS6PdxE3HllNU-19" target="2HjbmUuSS6PdxE3HllNU-6" edge="1">
          <mxGeometry width="160" relative="1" as="geometry">
            <mxPoint x="250" y="570" as="sourcePoint" />
            <mxPoint x="410" y="570" as="targetPoint" />
          </mxGeometry>
        </mxCell>
        <mxCell id="2HjbmUuSS6PdxE3HllNU-24" value="&amp;lt;&amp;lt;include&amp;gt;&amp;gt;" style="edgeStyle=none;html=1;endArrow=open;verticalAlign=bottom;dashed=1;labelBackgroundColor=none;rounded=0;entryX=0.573;entryY=1;entryDx=0;entryDy=0;entryPerimeter=0;exitX=0.955;exitY=0.3;exitDx=0;exitDy=0;exitPerimeter=0;" parent="1" source="2HjbmUuSS6PdxE3HllNU-20" target="2HjbmUuSS6PdxE3HllNU-6" edge="1">
          <mxGeometry width="160" relative="1" as="geometry">
            <mxPoint x="250" y="650" as="sourcePoint" />
            <mxPoint x="410" y="650" as="targetPoint" />
          </mxGeometry>
        </mxCell>
        <mxCell id="2HjbmUuSS6PdxE3HllNU-25" value="Chef" style="shape=umlActor;verticalLabelPosition=bottom;verticalAlign=top;html=1;" parent="1" vertex="1">
          <mxGeometry x="770" y="130" width="30" height="60" as="geometry" />
        </mxCell>
        <mxCell id="2HjbmUuSS6PdxE3HllNU-30" value="" style="edgeStyle=none;html=1;endArrow=none;verticalAlign=bottom;rounded=0;entryX=0.026;entryY=0.68;entryDx=0;entryDy=0;entryPerimeter=0;" parent="1" source="2HjbmUuSS6PdxE3HllNU-16" target="2HjbmUuSS6PdxE3HllNU-18" edge="1">
          <mxGeometry width="160" relative="1" as="geometry">
            <mxPoint x="55" y="260" as="sourcePoint" />
            <mxPoint x="55" y="260" as="targetPoint" />
          </mxGeometry>
        </mxCell>
        <mxCell id="2HjbmUuSS6PdxE3HllNU-31" value="" style="edgeStyle=none;html=1;endArrow=none;verticalAlign=bottom;rounded=0;entryX=0.073;entryY=0.76;entryDx=0;entryDy=0;entryPerimeter=0;" parent="1" source="2HjbmUuSS6PdxE3HllNU-16" target="2HjbmUuSS6PdxE3HllNU-19" edge="1">
          <mxGeometry width="160" relative="1" as="geometry">
            <mxPoint x="90" y="470" as="sourcePoint" />
            <mxPoint x="250" y="470" as="targetPoint" />
          </mxGeometry>
        </mxCell>
        <mxCell id="2HjbmUuSS6PdxE3HllNU-34" value="" style="edgeStyle=none;html=1;endArrow=none;verticalAlign=bottom;rounded=0;entryX=0.018;entryY=0.66;entryDx=0;entryDy=0;entryPerimeter=0;" parent="1" source="2HjbmUuSS6PdxE3HllNU-2" target="2HjbmUuSS6PdxE3HllNU-8" edge="1">
          <mxGeometry width="160" relative="1" as="geometry">
            <mxPoint x="80" y="185" as="sourcePoint" />
            <mxPoint x="240" y="185" as="targetPoint" />
          </mxGeometry>
        </mxCell>
        <mxCell id="2HjbmUuSS6PdxE3HllNU-35" value="" style="edgeStyle=none;html=1;endArrow=none;verticalAlign=bottom;rounded=0;entryX=0.082;entryY=0.74;entryDx=0;entryDy=0;entryPerimeter=0;" parent="1" source="2HjbmUuSS6PdxE3HllNU-2" target="2HjbmUuSS6PdxE3HllNU-7" edge="1">
          <mxGeometry width="160" relative="1" as="geometry">
            <mxPoint x="80" y="185" as="sourcePoint" />
            <mxPoint x="240" y="185" as="targetPoint" />
          </mxGeometry>
        </mxCell>
        <mxCell id="2HjbmUuSS6PdxE3HllNU-36" value="" style="edgeStyle=none;html=1;endArrow=none;verticalAlign=bottom;rounded=0;entryX=0.073;entryY=0.76;entryDx=0;entryDy=0;entryPerimeter=0;" parent="1" source="2HjbmUuSS6PdxE3HllNU-2" target="2HjbmUuSS6PdxE3HllNU-4" edge="1">
          <mxGeometry width="160" relative="1" as="geometry">
            <mxPoint x="80" y="185" as="sourcePoint" />
            <mxPoint x="240" y="185" as="targetPoint" />
          </mxGeometry>
        </mxCell>
        <mxCell id="2HjbmUuSS6PdxE3HllNU-38" value="" style="edgeStyle=none;html=1;endArrow=none;verticalAlign=bottom;rounded=0;entryX=0;entryY=0.5;entryDx=0;entryDy=0;" parent="1" source="2HjbmUuSS6PdxE3HllNU-16" target="2HjbmUuSS6PdxE3HllNU-20" edge="1">
          <mxGeometry width="160" relative="1" as="geometry">
            <mxPoint x="70" y="430" as="sourcePoint" />
            <mxPoint x="230" y="430" as="targetPoint" />
          </mxGeometry>
        </mxCell>
        <mxCell id="2HjbmUuSS6PdxE3HllNU-39" value="Prepare pizza" style="ellipse;whiteSpace=wrap;html=1;" parent="1" vertex="1">
          <mxGeometry x="600" y="60" width="110" height="50" as="geometry" />
        </mxCell>
        <mxCell id="2HjbmUuSS6PdxE3HllNU-40" value="Receive order" style="ellipse;whiteSpace=wrap;html=1;" parent="1" vertex="1">
          <mxGeometry x="460" y="130" width="110" height="50" as="geometry" />
        </mxCell>
        <mxCell id="2HjbmUuSS6PdxE3HllNU-41" value="View order" style="ellipse;whiteSpace=wrap;html=1;" parent="1" vertex="1">
          <mxGeometry x="600" y="210" width="110" height="50" as="geometry" />
        </mxCell>
        <mxCell id="2HjbmUuSS6PdxE3HllNU-43" value="" style="edgeStyle=none;html=1;endArrow=none;verticalAlign=bottom;rounded=0;entryX=0.936;entryY=0.86;entryDx=0;entryDy=0;entryPerimeter=0;" parent="1" source="2HjbmUuSS6PdxE3HllNU-25" target="2HjbmUuSS6PdxE3HllNU-39" edge="1">
          <mxGeometry width="160" relative="1" as="geometry">
            <mxPoint x="560" y="80" as="sourcePoint" />
            <mxPoint x="560" y="80" as="targetPoint" />
          </mxGeometry>
        </mxCell>
        <mxCell id="2HjbmUuSS6PdxE3HllNU-45" value="" style="edgeStyle=none;html=1;endArrow=none;verticalAlign=bottom;rounded=0;entryX=1;entryY=0;entryDx=0;entryDy=0;" parent="1" source="2HjbmUuSS6PdxE3HllNU-25" target="2HjbmUuSS6PdxE3HllNU-41" edge="1">
          <mxGeometry width="160" relative="1" as="geometry">
            <mxPoint x="560" y="80" as="sourcePoint" />
            <mxPoint x="560" y="80" as="targetPoint" />
          </mxGeometry>
        </mxCell>
        <mxCell id="2HjbmUuSS6PdxE3HllNU-48" value="&amp;lt;&amp;lt;include&amp;gt;&amp;gt;" style="edgeStyle=none;html=1;endArrow=open;verticalAlign=bottom;dashed=1;labelBackgroundColor=none;rounded=0;entryX=-0.009;entryY=0.68;entryDx=0;entryDy=0;entryPerimeter=0;" parent="1" source="2HjbmUuSS6PdxE3HllNU-40" target="2HjbmUuSS6PdxE3HllNU-39" edge="1">
          <mxGeometry width="160" relative="1" as="geometry">
            <mxPoint x="565" y="100" as="sourcePoint" />
            <mxPoint x="565" y="100" as="targetPoint" />
          </mxGeometry>
        </mxCell>
        <mxCell id="2HjbmUuSS6PdxE3HllNU-51" value="&amp;lt;&amp;lt;include&amp;gt;&amp;gt;" style="edgeStyle=none;html=1;endArrow=open;verticalAlign=bottom;dashed=1;labelBackgroundColor=none;rounded=0;entryX=0;entryY=0.5;entryDx=0;entryDy=0;" parent="1" source="2HjbmUuSS6PdxE3HllNU-40" target="2HjbmUuSS6PdxE3HllNU-41" edge="1">
          <mxGeometry width="160" relative="1" as="geometry">
            <mxPoint x="565" y="310" as="sourcePoint" />
            <mxPoint x="565" y="470" as="targetPoint" />
          </mxGeometry>
        </mxCell>
        <mxCell id="2HjbmUuSS6PdxE3HllNU-52" value="Delivery" style="shape=umlActor;verticalLabelPosition=bottom;verticalAlign=top;html=1;" parent="1" vertex="1">
          <mxGeometry x="780" y="300" width="30" height="60" as="geometry" />
        </mxCell>
        <mxCell id="2HjbmUuSS6PdxE3HllNU-54" value="Pizza delivery" style="ellipse;whiteSpace=wrap;html=1;" parent="1" vertex="1">
          <mxGeometry x="610" y="320" width="110" height="50" as="geometry" />
        </mxCell>
        <mxCell id="2HjbmUuSS6PdxE3HllNU-55" value="&amp;lt;&amp;lt;include&amp;gt;&amp;gt;" style="edgeStyle=none;html=1;endArrow=open;verticalAlign=bottom;dashed=1;labelBackgroundColor=none;rounded=0;entryX=0;entryY=0.64;entryDx=0;entryDy=0;entryPerimeter=0;exitX=0.5;exitY=1;exitDx=0;exitDy=0;" parent="1" source="2HjbmUuSS6PdxE3HllNU-40" target="2HjbmUuSS6PdxE3HllNU-54" edge="1">
          <mxGeometry width="160" relative="1" as="geometry">
            <mxPoint x="519.417820285616" y="758.6278546857077" as="sourcePoint" />
            <mxPoint x="680" y="755" as="targetPoint" />
          </mxGeometry>
        </mxCell>
        <mxCell id="2HjbmUuSS6PdxE3HllNU-56" value="" style="edgeStyle=none;html=1;endArrow=none;verticalAlign=bottom;rounded=0;entryX=0.927;entryY=0.18;entryDx=0;entryDy=0;entryPerimeter=0;" parent="1" source="2HjbmUuSS6PdxE3HllNU-52" target="2HjbmUuSS6PdxE3HllNU-54" edge="1">
          <mxGeometry width="160" relative="1" as="geometry">
            <mxPoint x="580" y="670" as="sourcePoint" />
            <mxPoint x="580" y="670" as="targetPoint" />
          </mxGeometry>
        </mxCell>
        <object placeholders="1" c4Name="System name" c4Type="SystemScopeBoundary" c4Application="Market" label="&lt;font style=&quot;font-size: 16px&quot;&gt;&lt;b&gt;&lt;div style=&quot;text-align: left&quot;&gt;%c4Name%&lt;/div&gt;&lt;/b&gt;&lt;/font&gt;&lt;div style=&quot;text-align: left&quot;&gt;[%c4Application%]&lt;/div&gt;" id="2HjbmUuSS6PdxE3HllNU-59">
          <mxCell style="rounded=1;fontSize=11;whiteSpace=wrap;html=1;dashed=1;arcSize=20;fillColor=none;strokeColor=#666666;fontColor=#333333;labelBackgroundColor=none;align=left;verticalAlign=bottom;labelBorderColor=none;spacingTop=0;spacing=10;dashPattern=8 4;metaEdit=1;rotatable=0;perimeter=rectanglePerimeter;noLabel=0;labelPadding=0;allowArrows=0;connectable=0;expand=0;recursiveResize=0;editable=1;pointerEvents=0;absoluteArcSize=1;points=[[0.25,0,0],[0.5,0,0],[0.75,0,0],[1,0.25,0],[1,0.5,0],[1,0.75,0],[0.75,1,0],[0.5,1,0],[0.25,1,0],[0,0.75,0],[0,0.5,0],[0,0.25,0]];" parent="1" vertex="1">
            <mxGeometry x="90" width="640" height="620" as="geometry" />
          </mxCell>
        </object>
      </root>
    </mxGraphModel>
  </diagram>
</mxfile>
